<svg xmlns="http://www.w3.org/2000/svg" viewBox="0 0 21000 29700" width="100%" height="100%">
 <defs>
  <style type="text/css">
   <![CDATA[
    .fil0 {fill:#0D0D0D}
   ]]>
  </style>
 </defs>
 <g id="logo">
  <path class="fil0" d="M10657.88 22295.86l2715.55 -6574.83 282.12 4857.91c-487.18,210.53 -1006.57,591.15 -1501.85,863.85 -301.34,165.93 -1269.48,804.08 -1495.82,853.07zm-6651.5 -7065.36l6167.57 2731.31c-251.97,164.63 -2724.67,1083.03 -3235.39,1282.64 -1251.77,489.26 -977.67,489.88 -1547.05,162.97 -474.32,-272.34 -940.07,-594.87 -1404.51,-827.25l19.38 -3349.67zm8418.61 2090.49l150.68 -69.74 -85.23 137.88c-192.81,667.71 -1140.45,2831.97 -1512.22,3725.82 -148.39,356.76 -427.02,929.44 -521.26,1270.26 -232.42,-71.2 -4183.69,-2421.07 -4378.45,-2595.69 217.79,-155.46 5911.96,-2377.54 6346.48,-2468.53zm-1984.9 -5453.73c309.46,-98.54 770.56,219.63 1050.49,357.37 1010.29,497.09 1089.81,336.01 1719.75,1235.38 186.04,265.61 114.85,914.25 138.81,1304.81 38.36,625.31 -48.25,659.68 -248.5,1171.45 -523.31,1337.35 -269.6,1036.23 -1460.19,1495.64 -1376.96,531.36 -902.37,636.53 -3152.86,-397.26 -284.17,-130.54 -212.06,-154.37 -399.84,-382.94 -564.26,-686.78 -382.71,-458.77 -451.86,-1688.76 -35.51,-631.27 61.83,-679.07 276.63,-1200.37 488.02,-1184.35 134.5,-1133.41 2527.57,-1895.32zm-6432.73 226.54l2479.48 2900.71c126.79,141.32 144.7,172.7 247.66,295.39 98.11,116.92 160.68,166.75 253.91,287.78 292.93,380.27 716.58,779.75 962.24,1186.36 -381.71,-82.09 -1561.1,-671.4 -2007.73,-865.63 -318.36,-138.43 -1850.27,-728.6 -1958.57,-935.37l23.01 -2869.24zm12979 6465.52c-444.47,329.19 -1075.44,654.71 -1578.54,948.92 -504.01,294.73 -1066.98,679.5 -1586.34,928.94l-354.69 -6625.38c212.73,137.85 2385.34,2844.06 2744.54,3282.57 666.96,814.19 795.15,784.27 775.03,1464.95zm-11.9 -798.67c-12.64,-26.39 -390.77,-469.92 -482.26,-585 -904.63,-1137.65 -2711.02,-3189.71 -3429.78,-4179.29 287.23,62.48 2499.77,1152.61 3055.12,1418.26 208.64,99.82 872.61,313.25 872.59,548.44l-15.67 2797.59zm-9497.15 -2505.16c22.85,239.57 32.45,477.26 38.56,705.63l-86.91 -122.89 -1851.04 -2168.44c-335.96,-396.12 -621.55,-712.73 -941.89,-1108.55 -420.73,-519.89 -770.31,-682.56 -648.92,-1338.68 83.72,-218.13 559.77,-429.08 768.94,-554.03l2424.81 -1435.23 296.45 6022.19zm3392.29 -3549.81c1027.18,-412.93 2102.21,-812.04 3171.97,-1224.38 1160.94,-447.48 1028.67,-510.99 1590.31,-167.7 442.46,270.44 912.84,519.38 1358.59,819.79l-6.16 3500.96c-468.44,-172.68 -6011.52,-2822.53 -6114.71,-2928.67zm-325.73 -4405.38c341.19,125.36 2789.15,1648.58 3351.82,1975.3l1081.37 688.35 -3293.91 1234.98c-532.8,200.57 -1071.09,412.66 -1606.39,624.45 -399.8,158.15 -1237.31,521.64 -1608.78,589.28l2075.89 -5112.36zm-3196.03 1793.07c527.37,-182.62 2281.23,-1419.64 2975.97,-1712.89l-2028.12 5018.57c-175.99,434.23 -453.21,1265.01 -710.2,1601.89l-237.65 -4907.57zm-3525.36 7619.27c-0.43,524.47 3.47,1048.51 1.48,1573.02 -1.39,364.34 -27.43,374.07 233.05,524.93l6442.67 3791.7c11.26,-0.43 6363.13,-3716.74 6655.1,-3959.07 -3.24,-2382.48 57.92,-5302.94 -7.8,-7621.5 -712.04,-344.16 -3985.93,-2398.3 -5023.67,-2992.41 -278.27,-159.32 -1458.57,-958.38 -1661.74,-930.9 -71.17,9.62 -6340.96,3724.49 -6628.28,3969.92l-10.81 5644.31z"/>
 </g>
</svg> 